<svg width="25" height="24" viewBox="0 0 25 24" fill="none" xmlns="http://www.w3.org/2000/svg">
<path d="M0 12.0722C0.00140484 18.0118 4.32052 23.0691 10.1867 24V15.5616H7.12359V12.0722H10.1903V9.41596C10.0533 8.15731 10.4832 6.9029 11.3635 5.99294C12.2438 5.08298 13.4833 4.61178 14.7458 4.70715C15.652 4.72179 16.5559 4.80249 17.4504 4.94863V7.9176H15.9242C15.3988 7.84878 14.8706 8.0223 14.4884 8.38928C14.1061 8.75626 13.9112 9.27698 13.9586 9.80474V12.0722H17.3043L16.7694 15.5628H13.9586V24C20.3028 22.9974 24.7516 17.2033 24.082 10.8154C23.4124 4.42748 17.8588 -0.31808 11.4446 0.0166677C5.03041 0.351415 0.00101961 5.64929 0 12.0722Z" fill="white"/>
</svg>
